<svg xmlns="http://www.w3.org/2000/svg" viewBox="0 0 288 288"><defs><style>.cls-1{fill:#210446;}</style></defs><g id="Layer_2" data-name="Layer 2"><g id="Layer_1-2" data-name="Layer 1"><path class="cls-1" d="M241.65,0H46.35A46.35,46.35,0,0,0,0,46.35v195.3A46.35,46.35,0,0,0,46.35,288h195.3A46.35,46.35,0,0,0,288,241.65V46.35A46.35,46.35,0,0,0,241.65,0ZM215,199.68a46.67,46.67,0,0,1-15.36,19.2c-9.53,7.4-18,11-34.56,11.46v.06H76.8v-169h80.64c26.88,0,42.24,11.52,49.92,26.88,3.84,7.68,3.84,26.88-3.84,38.4-1.16,1.74-5.48,7.83-16.39,13.84,9.6,3.54,18.25,8,24.07,16.88a39.07,39.07,0,0,1,3.84,7.68C216.76,169.57,221.55,184,215,199.68Z"/><path class="cls-1" d="M163.2,84.48H107.52V134.4H163.2c11.66,0,21.12-11.18,21.12-25S174.86,84.48,163.2,84.48Z"/><path class="cls-1" d="M108.59,158l-1.07,49.39H166c12.25,0,22.18-12,22.18-26.88s-9.72-22.51-22-22.51"/></g></g></svg>