<?xml version="1.0" encoding="utf-8"?>
<!-- Generator: Adobe Illustrator 24.1.2, SVG Export Plug-In . SVG Version: 6.00 Build 0)  -->
<svg version="1.1" id="Layer_1" xmlns="http://www.w3.org/2000/svg" xmlns:xlink="http://www.w3.org/1999/xlink" x="0px" y="0px"
	 viewBox="0 0 122.9 98.2" style="enable-background:new 0 0 122.9 98.2;" xml:space="preserve">
<style type="text/css">
	.st0{fill-rule:evenodd;clip-rule:evenodd;fill:#FFFFFF;}
</style>
<g>
	<path class="st0" d="M49.1,35.1c7.2,5.2,18.7-0.4,23.3,8.6c1.2,2.4,1.5,5.6,0.4,8.2c-0.4,1-1.1,2-2,2.7c-0.4,0.3-0.8,0.6-1.3,0.8
		c-5.9,2.9-12.1-1.2-15.4-6.1C51.1,44.8,49.8,39,49.1,35.1L49.1,35.1z M100,0H7.3C3.3,0,0,3.3,0,7.3V85c0,4,3.3,7.3,7.3,7.3h72.4
		L73.4,87H7.1c-0.6,0-1.1-0.2-1.4-0.6C5.3,86,5.1,85.5,5.1,85V20.3h0h96.8V50l5.4,4.4V7.3C107.3,3.3,104,0,100,0L100,0z M14.2,8.2
		c-2,0-3.6,1.6-3.6,3.6s1.6,3.6,3.6,3.6s3.6-1.6,3.6-3.6C17.8,9.8,16.1,8.2,14.2,8.2L14.2,8.2z M38.5,8.2c-2,0-3.6,1.6-3.6,3.6
		s1.6,3.6,3.6,3.6c2,0,3.6-1.6,3.6-3.6C42.1,9.8,40.5,8.2,38.5,8.2L38.5,8.2z M26.3,8.2c-2,0-3.6,1.6-3.6,3.6s1.6,3.6,3.6,3.6
		s3.6-1.6,3.6-3.6C29.9,9.8,28.3,8.2,26.3,8.2L26.3,8.2z M85.6,74.5c4-3.2,7.1-6.9,9.2-11.1l25.8,27.2c1.9,1.8,3.1,3.4,1.4,6.2
		c-0.8,0.8-1.7,1.3-2.6,1.3c-0.9,0.1-1.8-0.3-2.8-1L85.6,74.5L85.6,74.5z M72,58.8c1.7-0.9,4.1-3.2,4.7-5.7l16.2,8.9
		c-2.3,4.6-5.3,8.6-9.4,11.4C79.2,67.6,76.9,64.2,72,58.8L72,58.8z"/>
</g>
</svg>
