<?xml version="1.0" encoding="utf-8"?>
<!-- Generator: Adobe Illustrator 24.1.2, SVG Export Plug-In . SVG Version: 6.00 Build 0)  -->
<svg version="1.1" id="Layer_1" xmlns="http://www.w3.org/2000/svg" xmlns:xlink="http://www.w3.org/1999/xlink" x="0px" y="0px"
	 viewBox="0 0 103.4 122.9" style="enable-background:new 0 0 103.4 122.9;" xml:space="preserve">
<style type="text/css">
	.st0{fill:#FFFFFF;}
</style>
<path class="st0" d="M64.6,4.5c3.9,0.3,7.9,0.9,11.8,1.6c-1.3,1.5-2.2,3.4-2.5,5.4c-2.7-0.5-5.5-0.8-8.4-1.1
	C65.6,8.4,65.3,6.4,64.6,4.5z M21.3,1.6c4.3,2.9,5.4,8.7,2.5,12.9s-8.7,5.4-12.9,2.5C6.7,14.2,5.5,8.4,8.4,4.1
	C11.3-0.2,17.1-1.3,21.3,1.6z M84.8,8c3,0,5.4,2.4,5.4,5.4s-2.4,5.4-5.4,5.4s-5.4-2.4-5.4-5.4c0,0,0,0,0,0C79.4,10.4,81.8,8,84.8,8z
	 M53.3,1.9c3.9,0,7,3.1,7,7s-3.1,7-7,7s-7-3.1-7-7S49.4,1.9,53.3,1.9z M36.5,20.1c2.4,0,4.4,2,4.4,4.4s-2,4.4-4.4,4.4
	s-4.4-2-4.4-4.4c0,0,0,0,0,0C32.1,22,34.1,20.1,36.5,20.1z M97.9,35.6C89,44.2,82.6,50,78,54.9H25.4c-4.5-4.9-10.7-10.8-19.1-19.2
	C5,34.5,4,33.2,3,31.7l0.2,0.2c-2-2.1-3.2-4.8-3.2-7.7C0,21.5,1,19,2.8,17c0.7,1.2,1.5,2.3,2.5,3.2c0.4,0.4,0.8,0.8,1.3,1.2
	c-0.6,0.8-0.9,1.8-0.9,2.8c0,8,20.6,14.4,46,14.4s46-6.4,46-14.4c0-1.9-1.2-3.7-3.3-5.4c0.9-1.7,1.4-3.5,1.4-5.5c0-0.1,0-0.3,0-0.5
	c4.8,3.1,7.5,6.9,7.5,11.3c0,2.6-1,5.2-2.7,7.1c0.5-0.5,1-1.1,1.4-1.7C101.1,31.9,99.6,33.9,97.9,35.6L97.9,35.6z M31.4,11.3
	c0.2-1.9,0.1-3.9-0.4-5.8c3.5-0.5,7.2-0.9,11.1-1.2c-0.6,1.5-1,3.1-0.9,4.7c0,0.4,0,0.8,0.1,1.2C37.7,10.5,34.5,10.8,31.4,11.3
	L31.4,11.3z M73.8,59.6c-7,8.8-8.1,12.6-8.2,33.1H37.4c0.5-20.3,0.6-22.8-7.9-33.1L73.8,59.6z M65.6,97.4c0,3.5,0,7.3,0,11.6
	c0,1-0.5,1.8-1.4,2.2l-23.4,11.4c-1.2,0.7-2.7,0.3-3.4-0.9c-0.2-0.4-0.3-0.8-0.3-1.3l0,0c0-9.3,0.2-16.8,0.3-23L65.6,97.4z"/>
</svg>
