<svg xmlns="http://www.w3.org/2000/svg" viewBox="0 0 253.51 288"><defs><style>.cls-1{fill:#210446;}</style></defs><g id="Layer_2" data-name="Layer 2"><g id="Layer_1-2" data-name="Layer 1"><polygon class="cls-1" points="166.9 288 253.51 268.75 222.02 53.78 196.62 52.13 179.13 34.38 166.9 288"/><path class="cls-1" d="M164.42,36.52a47,47,0,0,0-4.48-10.42,36.47,36.47,0,0,0-7.78-10.22A26.65,26.65,0,0,0,140.49,9.3,23.69,23.69,0,0,0,133,8.64l-.08-.1c-1.45-1.78-4.36-5.74-9.51-7.58a19.17,19.17,0,0,0-3.35-.78A32.91,32.91,0,0,0,109,1a42,42,0,0,0-14.8,6.23,57.45,57.45,0,0,0-15,14.08A122,122,0,0,0,59.73,61.13c-1,3.49-1.64,6.52-2.09,8.81L23,80.78l-23,177L162.53,288l12.28-254.7Zm-36.23-16.1a45.62,45.62,0,0,1,2.47,9.52c1,8.12,1.58,13.15,1.44,16.69l-28.91,9c.64-2.27,1.5-5,2.65-8.16A67.92,67.92,0,0,1,110,37.86c1.72-3.16,5.45-9.84,12.82-14.62A31.66,31.66,0,0,1,128.19,20.42Zm-49.51,21c.56-1.07,1.24-2.26,1.24-2.26,3.09-5.52,6-10.78,10.75-16a41.43,41.43,0,0,1,10.16-8.64,33.14,33.14,0,0,1,7.68-3.35A26.2,26.2,0,0,1,115,10a21,21,0,0,1,3.66.21,8.71,8.71,0,0,1,3.24,1.25,37.43,37.43,0,0,0-7,4.25c-7.77,5.7-11.64,12.74-14.37,17.72a70.35,70.35,0,0,0-4.75,10.7,83.07,83.07,0,0,0-3.94,15.14l-22.64,7.1C71.38,58.53,74.54,49.22,78.68,41.44Zm44.59,94.34a47,47,0,0,0-9.58-3.82A40.38,40.38,0,0,0,97,130.91a16.66,16.66,0,0,0-6.83,2.27,12.58,12.58,0,0,0-5.89,7.72,11.56,11.56,0,0,0,1.81,9.35,29.08,29.08,0,0,0,4.51,4.52c2.45,2,4.31,3.32,5.3,4a89.43,89.43,0,0,1,10,7.56,54.09,54.09,0,0,1,9.62,10.49,44.72,44.72,0,0,1,7,18.26A47.87,47.87,0,0,1,120,218.2a40.21,40.21,0,0,1-9.83,16,39.77,39.77,0,0,1-18.92,9.95c-10.18,2.49-18.54.63-23.56-.54a60.84,60.84,0,0,1-15-5.84A61.76,61.76,0,0,1,39,227.6q3.81-12.58,7.61-25.18a73.31,73.31,0,0,0,12.89,8.65,34.86,34.86,0,0,0,8.65,3.38c2.91.68,6.07,1.37,9.65.15a11.16,11.16,0,0,0,4.83-3,10.89,10.89,0,0,0,2.52-4.9,13.47,13.47,0,0,0-.86-8.43,18.17,18.17,0,0,0-2.89-4.61,36.89,36.89,0,0,0-5.69-5.69c-7.23-6.22-8.4-6.93-11.16-9.73a42.08,42.08,0,0,1-4.4-4.9,36.73,36.73,0,0,1-6-13.47,40.42,40.42,0,0,1-.29-15.56,54,54,0,0,1,11.67-26.52A53,53,0,0,1,78.17,107a55.63,55.63,0,0,1,16.93-6.78,64.88,64.88,0,0,1,16.21-1.65,59.68,59.68,0,0,1,11.89,1.08A57.54,57.54,0,0,1,134.3,103Zm18.45-92.15a71.14,71.14,0,0,0-.47-11.86A60.71,60.71,0,0,0,138.5,18.7a14.54,14.54,0,0,1,4.8,1.59,15.06,15.06,0,0,1,4.91,4.46c3.66,4.83,6,11,7.14,14.61Z"/></g></g></svg>