<?xml version="1.0" encoding="utf-8"?>
<!-- Generator: Adobe Illustrator 24.1.2, SVG Export Plug-In . SVG Version: 6.00 Build 0)  -->
<svg version="1.1" id="Layer_1" xmlns="http://www.w3.org/2000/svg" xmlns:xlink="http://www.w3.org/1999/xlink" x="0px" y="0px"
	 viewBox="0 0 122.9 73.1" style="enable-background:new 0 0 122.9 73.1;" xml:space="preserve">
<style type="text/css">
	.st0{fill-rule:evenodd;clip-rule:evenodd;fill:#FFFFFF;}
</style>
<path class="st0" d="M41.6,58.2c-1.1,7,3.7,13.6,10.7,14.8S66,69.3,67.1,62.2c0.1-0.7,0.2-1.4,0.2-2.1c0-0.7-0.1-1.3-0.2-2h22.2
	c-0.1,0.6-0.1,1.2-0.1,1.9c0,7.2,5.9,13.1,13.1,13.1c7.2,0,13.1-5.9,13.1-13.1c0-0.8-0.1-1.6-0.2-2.3c4.3-0.1,7.7-3.6,7.8-7.9V24.1
	L106.6,6.6H84.3v38.9h-80c-1.8,0-3.3,1.4-3.3,3.2V55c0,1.8,1.5,3.2,3.3,3.2h3.6c-0.1,0.7-0.2,1.3-0.2,2c-0.2,7.1,5.4,13.1,12.5,13.3
	S33.4,68,33.6,60.9c0-0.2,0-0.5,0-0.7c0-0.7-0.1-1.3-0.2-2L41.6,58.2L41.6,58.2z M76.5,0H4.1C1.8,0,0,1.8,0,4.1v38.2h80.6V4.1
	C80.6,1.8,78.7,0,76.5,0z M15.7,60.3c0,6.5,9.9,6.5,9.9,0C25.6,53.3,15.7,54,15.7,60.3z M97.2,60c0,6.6,10.1,6.6,10.1,0
	S97.2,53.4,97.2,60z M106.5,14.2l8.2,9.8v3.6H92.5V14.2L106.5,14.2z M49.4,60.3c0,6.5,9.9,6.5,9.9,0S49.4,53.7,49.4,60.3z"/>
</svg>
