<?xml version="1.0" encoding="utf-8"?>
<!-- Generator: Adobe Illustrator 24.1.2, SVG Export Plug-In . SVG Version: 6.00 Build 0)  -->
<svg version="1.1" id="Layer_1" xmlns="http://www.w3.org/2000/svg" xmlns:xlink="http://www.w3.org/1999/xlink" x="0px" y="0px"
	 viewBox="0 0 122.4 122.9" style="enable-background:new 0 0 122.4 122.9;" xml:space="preserve">
<style type="text/css">
	.st0{fill-rule:evenodd;clip-rule:evenodd;fill:#FFFFFF;}
</style>
<g>
	<path class="st0" d="M22.6,12.6h93.3c6.1,0,5.8,2.5,5.2,8.8l-3.5,44.2c-0.6,7.1-0.1,5.3-7.6,6.4l-68.6,8.7l3.6,10.5
		c29.8,0,44.2,0,73.9,0c1,3.7,2.4,9.8,3.4,14h-12.3L109,101c-24.8,0-34.3,0-59.1,0c-13.5-0.2-12.2,3.4-15.4-8.3L11.2,8.1H0V0h19.6
		C20.5,3.4,21.8,9.1,22.6,12.6L22.6,12.6z M53.7,103.9c5.2,0,9.5,4.3,9.5,9.5c0,5.2-4.3,9.5-9.5,9.5c-5.2,0-9.5-4.2-9.5-9.5
		C44.2,108.2,48.5,103.9,53.7,103.9L53.7,103.9z M92.8,103.9c5.2,0,9.5,4.3,9.5,9.5c0,5.2-4.3,9.5-9.5,9.5c-5.2,0-9.5-4.2-9.5-9.5
		C83.3,108.2,87.6,103.9,92.8,103.9L92.8,103.9z"/>
</g>
</svg>
