<svg xmlns="http://www.w3.org/2000/svg" viewBox="0 0 275.44 275.44"><defs><style>.cls-1{fill:#210446;}</style></defs><g id="Layer_2" data-name="Layer 2"><g id="Layer_1-2" data-name="Layer 1"><path class="cls-1" d="M124.45,5.27,98.61,31.06l31.66,31.73a20.77,20.77,0,0,1,26.86,26.9l30.75,30.81a20.93,20.93,0,1,1-12.13,12.11l-29.18-29.23.25,74.47a19.88,19.88,0,0,1,6.25,4.27,20.95,20.95,0,1,1-29.59,0,19.53,19.53,0,0,1,6.13-4.21l-.23-76.4a21.09,21.09,0,0,1-6.55-4.45,20.79,20.79,0,0,1-4.69-22.19L86.48,43.17l-81.19,81a18.19,18.19,0,0,0,.08,25.73L125.26,270.05a18.19,18.19,0,0,0,25.73.13l119.16-119a18.18,18.18,0,0,0-.08-25.72L150.18,5.39A18.19,18.19,0,0,0,124.45,5.27Z"/></g></g></svg>