<svg xmlns="http://www.w3.org/2000/svg" viewBox="0 0 288 288"><defs><style>.cls-1{fill:#210446;}</style></defs><g id="Layer_2" data-name="Layer 2"><g id="Layer_1-2" data-name="Layer 1"><path class="cls-1" d="M0,0V288H288V0ZM157.31,224.53c0,27.72-16.25,40.34-39.95,40.34-21.41,0-33.84-11.09-40.14-24.47L99,227.21c4.2,7.45,8,13.76,17.2,13.76,8.8,0,14.34-3.44,14.34-16.82v-91h26.76Zm63.26,40.34c-24.85,0-40.9-11.86-48.74-27.34l21.79-12.62c5.74,9.37,13.19,16.25,26.38,16.25,11.09,0,18.16-5.54,18.16-13.19,0-9.17-7.26-12.42-19.5-17.78L212,207.33c-19.3-8.22-32.11-18.55-32.11-40.34,0-20.07,15.29-35.36,39.18-35.36,17,0,29.25,5.92,38,21.41l-20.84,13.38C231.66,158.2,226.69,155,219,155c-7.83,0-12.8,5-12.8,11.47,0,8,5,11.28,16.44,16.25l6.69,2.86c22.75,9.75,35.55,19.69,35.55,42.06C264.92,251.68,246,264.87,220.57,264.87Z"/></g></g></svg>